<svg xmlns="http://www.w3.org/2000/svg" width="20.933" height="20.933" viewBox="0 0 20.933 20.933">
  <g id="Group_2775" data-name="Group 2775" transform="translate(-19 -479.533)">
    <path id="Path_18889" data-name="Path 18889" d="M327.276,275.429H328.5v1.227h-1.227Z" transform="translate(-294.895 215.365)" fill="#9cac3a"/>
    <path id="Path_18890" data-name="Path 18890" d="M258.215,275.429h1.227v1.227h-1.227Z" transform="translate(-228.658 215.365)" fill="#9cac3a"/>
    <path id="Path_18891" data-name="Path 18891" d="M189.152,275.429h1.227v1.227h-1.227Z" transform="translate(-162.418 215.365)" fill="#9cac3a"/>
    <path id="Path_18892" data-name="Path 18892" d="M20.933,4.836A4.836,4.836,0,0,0,11.7,2.815H4.265L3.984,0H0V1.227H2.873l.176,1.76,1.12,11.2a2.021,2.021,0,0,0,.666,3.928h.949a2.021,2.021,0,1,0,3.716,0H12.84a2.021,2.021,0,1,0,3.716,0h1.5V16.891H4.836a.794.794,0,1,1,0-1.589H18.06L18.7,8.911a4.837,4.837,0,0,0,2.234-4.075ZM7.643,19.707a.794.794,0,1,1,.794-.794A.8.8,0,0,1,7.643,19.707Zm7.055,0a.794.794,0,1,1,.794-.794A.8.8,0,0,1,14.7,19.707Zm1.4-18.48a3.61,3.61,0,1,1-3.61,3.61A3.614,3.614,0,0,1,16.1,1.227Zm.853,12.85H5.391l-1-10.034h6.939a4.837,4.837,0,0,0,6.082,5.45Z" transform="translate(19 479.533)" fill="#9cac3a"/>
    <path id="Path_18893" data-name="Path 18893" d="M341,80.172l-.867-.867-1.886,1.887-1.073-1.073-.867.867,1.941,1.941Z" transform="translate(-303.553 403.471)" fill="#9cac3a"/>
  </g>
</svg>
