<svg xmlns="http://www.w3.org/2000/svg" width="31.388" height="21.352" viewBox="0 0 31.388 21.352">
  <g id="_3843564" data-name="3843564" transform="translate(-7.824 -87.85)">
    <path id="Path_18970" data-name="Path 18970" d="M38.054,104.566v-.025a14.539,14.539,0,0,0-12.529-14.4v-.388A1.756,1.756,0,0,0,23.769,88h-.5a1.756,1.756,0,0,0-1.754,1.754v.388a14.539,14.539,0,0,0-12.531,14.4v.025a1.253,1.253,0,0,0,.251,2.481h1.754v.251a1.756,1.756,0,0,0,1.754,1.754H34.295a1.756,1.756,0,0,0,1.754-1.754v-.251H37.8a1.253,1.253,0,0,0,.251-2.481ZM22.516,89.754A.752.752,0,0,1,23.268,89h.5a.752.752,0,0,1,.752.752V90h-2Zm-8.567,5.217a13.533,13.533,0,0,1,23.1,9.569H9.985a13.442,13.442,0,0,1,3.964-9.569Zm21.1,12.326a.752.752,0,0,1-.752.752H12.742a.752.752,0,0,1-.752-.752v-.251H35.046Zm2.757-1.253H9.233a.251.251,0,1,1,0-.5H37.8a.251.251,0,1,1,0,.5Z" transform="translate(0)" fill="#9cac3a" stroke="#9cac3a" stroke-width="0.3"/>
    <path id="Path_18971" data-name="Path 18971" d="M73.523,320H64.5a.5.5,0,1,0,0,1h9.022a.5.5,0,1,0,0-1Z" transform="translate(-52.511 -217.464)" fill="#9cac3a" stroke="#9cac3a" stroke-width="0.3"/>
    <path id="Path_18972" data-name="Path 18972" d="M233,320h-.5a.5.5,0,1,0,0,1h.5a.5.5,0,1,0,0-1Z" transform="translate(-209.985 -217.464)" fill="#9cac3a" stroke="#9cac3a" stroke-width="0.3"/>
  </g>
</svg>
