<svg xmlns="http://www.w3.org/2000/svg" width="21.143" height="18.5" viewBox="0 0 21.143 18.5">
  <g id="Group_2854" data-name="Group 2854" transform="translate(-18 -594.75)">
    <path id="Path_18879" data-name="Path 18879" d="M2.863,4.4H1.542A1.543,1.543,0,0,1,0,2.863V1.542A1.543,1.543,0,0,1,1.542,0H2.863A1.543,1.543,0,0,1,4.4,1.542V2.863A1.543,1.543,0,0,1,2.863,4.4ZM1.542,1.322a.22.22,0,0,0-.22.22V2.863a.22.22,0,0,0,.22.22H2.863a.22.22,0,0,0,.22-.22V1.542a.22.22,0,0,0-.22-.22Zm0,0" transform="translate(18 594.75)" fill="#9cac3a"/>
    <path id="Path_18880" data-name="Path 18880" d="M2.863,175.073H1.542A1.543,1.543,0,0,1,0,173.531V172.21a1.543,1.543,0,0,1,1.542-1.542H2.863A1.543,1.543,0,0,1,4.4,172.21v1.321A1.543,1.543,0,0,1,2.863,175.073Zm-1.321-3.083a.22.22,0,0,0-.22.22v1.321a.22.22,0,0,0,.22.22H2.863a.22.22,0,0,0,.22-.22V172.21a.22.22,0,0,0-.22-.22Zm0,0" transform="translate(18 431.13)" fill="#9cac3a"/>
    <path id="Path_18881" data-name="Path 18881" d="M2.863,345.737H1.542A1.543,1.543,0,0,1,0,344.2v-1.321a1.543,1.543,0,0,1,1.542-1.542H2.863A1.543,1.543,0,0,1,4.4,342.874V344.2A1.543,1.543,0,0,1,2.863,345.737Zm-1.321-3.083a.22.22,0,0,0-.22.22V344.2a.22.22,0,0,0,.22.22H2.863a.22.22,0,0,0,.22-.22v-1.321a.22.22,0,0,0-.22-.22Zm0,0" transform="translate(18 267.513)" fill="#9cac3a"/>
    <path id="Path_18882" data-name="Path 18882" d="M163.648,38.653H149.993a.661.661,0,0,1,0-1.321h13.655a.661.661,0,0,1,0,1.321Zm0,0" transform="translate(-125.165 558.959)" fill="#9cac3a"/>
    <path id="Path_18883" data-name="Path 18883" d="M163.648,209.321H149.993a.661.661,0,0,1,0-1.321h13.655a.661.661,0,0,1,0,1.321Zm0,0" transform="translate(-125.165 395.339)" fill="#9cac3a"/>
    <path id="Path_18884" data-name="Path 18884" d="M163.648,379.989H149.993a.661.661,0,0,1,0-1.321h13.655a.661.661,0,0,1,0,1.321Zm0,0" transform="translate(-125.165 231.719)" fill="#9cac3a"/>
  </g>
</svg>
