<svg xmlns="http://www.w3.org/2000/svg" width="23.162" height="24.139" viewBox="0 0 23.162 24.139">
  <g id="Group_2853" data-name="Group 2853" transform="translate(-17 -537.261)">
    <path id="Path_18886" data-name="Path 18886" d="M154.168,144a.7.7,0,0,0-.984,0L144,153.184a.7.7,0,1,0,.984.984l9.188-9.188A.7.7,0,0,0,154.168,144Z" transform="translate(-120.955 400.249)" fill="#9cac3a"/>
    <path id="Path_18887" data-name="Path 18887" d="M145.354,123.116a2.552,2.552,0,1,0,2.552,2.552A2.555,2.555,0,0,0,145.354,123.116Zm0,3.713a1.16,1.16,0,1,1,1.16-1.16A1.161,1.161,0,0,1,145.354,126.829Z" transform="translate(-120.013 419.949)" fill="#9cac3a"/>
    <path id="Path_18888" data-name="Path 18888" d="M263.474,280.61a2.552,2.552,0,1,0,2.552,2.552A2.555,2.555,0,0,0,263.474,280.61Zm0,3.713a1.16,1.16,0,1,1,1.16-1.16A1.162,1.162,0,0,1,263.474,284.323Z" transform="translate(-232.564 269.881)" fill="#9cac3a"/>
    <path id="Path_18885" data-name="Path 18885" d="M32.4,12.38a.707.707,0,0,1,0-.625l.9-1.842a2.1,2.1,0,0,0-.9-2.783L30.59,6.17a.707.707,0,0,1-.368-.506l-.354-2.019A2.1,2.1,0,0,0,27.5,1.925l-2.03.287a.707.707,0,0,1-.595-.193L23.4.593a2.1,2.1,0,0,0-2.926,0L19,2.019a.708.708,0,0,1-.595.193l-2.03-.287a2.1,2.1,0,0,0-2.367,1.72l-.354,2.019a.708.708,0,0,1-.368.506l-1.811.961a2.1,2.1,0,0,0-.9,2.783l.9,1.842a.707.707,0,0,1,0,.625l-.9,1.842A2.1,2.1,0,0,0,11.48,17l1.811.961a.707.707,0,0,1,.368.506l.354,2.019a2.094,2.094,0,0,0,2.066,1.741,2.153,2.153,0,0,0,.3-.021l2.03-.287a.707.707,0,0,1,.595.193l1.473,1.425a2.1,2.1,0,0,0,2.926,0l1.473-1.425a.708.708,0,0,1,.595-.193l2.03.287a2.1,2.1,0,0,0,2.367-1.72l.354-2.019a.708.708,0,0,1,.368-.506L32.4,17a2.1,2.1,0,0,0,.9-2.783Zm-.656,3.395-1.811.961a2.091,2.091,0,0,0-1.086,1.5L28.5,20.25a.709.709,0,0,1-.8.582l-2.03-.287a2.09,2.09,0,0,0-1.758.571l-1.473,1.425a.709.709,0,0,1-.99,0l-1.473-1.425a2.089,2.089,0,0,0-1.458-.592,2.137,2.137,0,0,0-.3.021l-2.03.287a.709.709,0,0,1-.8-.582l-.354-2.019a2.091,2.091,0,0,0-1.086-1.5l-1.811-.961a.709.709,0,0,1-.306-.941l.9-1.842a2.091,2.091,0,0,0,0-1.848l-.9-1.842a.709.709,0,0,1,.306-.941L13.943,7.4a2.091,2.091,0,0,0,1.086-1.5l.354-2.019a.709.709,0,0,1,.8-.582l2.03.287a2.091,2.091,0,0,0,1.758-.571l1.473-1.425a.709.709,0,0,1,.99,0l1.473,1.425a2.091,2.091,0,0,0,1.758.571L27.7,3.3a.709.709,0,0,1,.8.582L28.851,5.9a2.091,2.091,0,0,0,1.086,1.5l1.811.961a.709.709,0,0,1,.306.941l-.9,1.842a2.091,2.091,0,0,0,0,1.848l.9,1.842A.709.709,0,0,1,31.748,15.775Z" transform="translate(6.641 537.263)" fill="#9cac3a"/>
  </g>
</svg>
