<svg xmlns="http://www.w3.org/2000/svg" width="43.288" height="40.196" viewBox="0 0 43.288 40.196">
  <path id="Icon_ionic-ios-star" data-name="Icon ionic-ios-star" d="M43.9,17.289H29.682L25.363,4.4a1.565,1.565,0,0,0-2.937,0l-4.319,12.89H3.8A1.551,1.551,0,0,0,2.25,18.835a1.136,1.136,0,0,0,.029.261,1.485,1.485,0,0,0,.647,1.092L14.608,28.42,10.125,41.455a1.55,1.55,0,0,0,.531,1.739,1.5,1.5,0,0,0,.87.377,1.894,1.894,0,0,0,.966-.348l11.4-8.126,11.4,8.126a1.811,1.811,0,0,0,.966.348,1.388,1.388,0,0,0,.86-.377,1.532,1.532,0,0,0,.531-1.739L33.17,28.42l11.585-8.31.28-.242a1.621,1.621,0,0,0,.5-1.034A1.636,1.636,0,0,0,43.9,17.289Z" transform="translate(-2.25 -3.375)" fill="#e18e00"/>
</svg>
