<svg xmlns="http://www.w3.org/2000/svg" width="16.078" height="21" viewBox="0 0 16.078 21">
  <g id="Group_2855" data-name="Group 2855" transform="translate(-20 -647.5)">
    <g id="Group_2858" data-name="Group 2858">
      <path id="Path_18871" data-name="Path 18871" d="M2.461,21H13.617a2.464,2.464,0,0,0,2.461-2.461V1.846a.615.615,0,0,0-.615-.615H12.387V.615A.615.615,0,0,0,11.772,0H6.809a.615.615,0,0,0-.615.615V1.23H3.117a.615.615,0,0,0-.615.615V17.309H.615A.615.615,0,0,0,0,17.924v.615A2.464,2.464,0,0,0,2.461,21ZM7.424,1.23h3.732v1.23H7.424ZM3.732,2.461H6.193v.615a.615.615,0,0,0,.615.615h4.963a.615.615,0,0,0,.615-.615V2.461h2.461V18.539a1.23,1.23,0,1,1-2.461,0v-.615a.615.615,0,0,0-.615-.615H3.732Zm7.424,16.078a2.447,2.447,0,0,0,.33,1.23H2.461a1.232,1.232,0,0,1-1.23-1.23Z" transform="translate(20 647.5)" fill="#9cac3a"/>
      <path id="Path_18873" data-name="Path 18873" d="M211.615,152.23h3.732a.615.615,0,0,0,0-1.23h-3.732a.615.615,0,0,0,0,1.23Z" transform="translate(-182.346 502.693)" fill="#9cac3a"/>
      <path id="Path_18874" data-name="Path 18874" d="M215.348,241h-3.732a.615.615,0,0,0,0,1.23h3.732a.615.615,0,0,0,0-1.23Z" transform="translate(-182.346 416.385)" fill="#9cac3a"/>
      <path id="Path_18875" data-name="Path 18875" d="M215.963,331.615a.615.615,0,0,0-.615-.615h-3.732a.615.615,0,1,0,0,1.23h3.732A.615.615,0,0,0,215.963,331.615Z" transform="translate(-182.346 330.076)" fill="#9cac3a"/>
      <path id="Path_18876" data-name="Path 18876" d="M122.41,123.28a.615.615,0,0,0,.87,0l1.23-1.23a.615.615,0,0,0-.87-.87l-.8.8-.8-.8a.615.615,0,0,0-.87.87Z" transform="translate(-96.037 531.463)" fill="#9cac3a"/>
      <path id="Path_18877" data-name="Path 18877" d="M122.41,213.28a.615.615,0,0,0,.87,0l1.23-1.23a.615.615,0,0,0-.87-.87l-.8.8-.8-.8a.615.615,0,1,0-.87.87Z" transform="translate(-96.037 445.155)" fill="#9cac3a"/>
      <path id="Path_18878" data-name="Path 18878" d="M124.511,301.181a.615.615,0,0,0-.87,0l-.8.8-.8-.8a.615.615,0,0,0-.87.87l1.23,1.23a.615.615,0,0,0,.87,0l1.23-1.23A.615.615,0,0,0,124.511,301.181Z" transform="translate(-96.037 358.845)" fill="#9cac3a"/>
    </g>
  </g>
</svg>
