<svg xmlns="http://www.w3.org/2000/svg" width="22.576" height="24" viewBox="0 0 22.576 24">
  <g id="Group_2857" data-name="Group 2857" transform="translate(-16.75 -754)">
    <path id="Path_18863" data-name="Path 18863" d="M82.507,80.312A1.068,1.068,0,1,0,81,81.822l3.161,3.162H71.07a1.068,1.068,0,1,0,0,2.136H84.158L81,90.281a1.068,1.068,0,0,0,1.511,1.511l4.985-4.985a1.068,1.068,0,0,0,0-1.511Z" transform="translate(-48.729 679.948)" fill="#9cac3a" stroke="#fff" stroke-width="0.5"/>
    <path id="Path_18864" data-name="Path 18864" d="M20.326,23.5a1.068,1.068,0,0,0,0-2.136H12.136V2.136h8.189a1.068,1.068,0,0,0,0-2.136H11.068A1.068,1.068,0,0,0,10,1.068V22.432A1.068,1.068,0,0,0,11.068,23.5Z" transform="translate(7 754.25)" fill="#9cac3a" stroke="#fff" stroke-width="0.5"/>
  </g>
</svg>
