<svg xmlns="http://www.w3.org/2000/svg" width="21.142" height="26.463" viewBox="0 0 21.142 26.463">
  <g id="Group_2851" data-name="Group 2851" transform="translate(-18 -316)">
    <path id="Path_18857" data-name="Path 18857" d="M20.033,28.336a.857.857,0,0,0-.84.675,1.658,1.658,0,0,1-.331.721,1.25,1.25,0,0,1-1.065.39,1.271,1.271,0,0,1-1.065-.39,1.658,1.658,0,0,1-.331-.721.857.857,0,0,0-.84-.675h0a.862.862,0,0,0-.84,1.052A2.955,2.955,0,0,0,17.8,31.841a2.95,2.95,0,0,0,3.076-2.454.866.866,0,0,0-.84-1.052Z" transform="translate(10.755 310.622)" fill="#9cac3a"/>
    <path id="Path_18858" data-name="Path 18858" d="M27.652,23.528c-1.019-1.343-3.023-2.13-3.023-8.142,0-6.171-2.725-8.651-5.265-9.247-.238-.06-.41-.139-.41-.39V5.558A1.622,1.622,0,0,0,17.367,3.93h-.04A1.622,1.622,0,0,0,15.74,5.558v.192c0,.245-.172.331-.41.39-2.546.6-5.265,3.076-5.265,9.247,0,6.012-2,6.793-3.023,8.142a1.313,1.313,0,0,0,1.052,2.1H26.62A1.314,1.314,0,0,0,27.652,23.528Zm-2.58.384H9.648a.29.29,0,0,1-.218-.483,8.013,8.013,0,0,0,1.389-2.209,14.989,14.989,0,0,0,.946-5.834,10.143,10.143,0,0,1,1.382-5.741,4.244,4.244,0,0,1,2.56-1.825,2.318,2.318,0,0,0,1.23-.694.523.523,0,0,1,.787-.013,2.4,2.4,0,0,0,1.243.708,4.244,4.244,0,0,1,2.56,1.825,10.143,10.143,0,0,1,1.382,5.741,14.989,14.989,0,0,0,.946,5.834,8.1,8.1,0,0,0,1.422,2.242A.273.273,0,0,1,25.073,23.912Z" transform="translate(11.225 312.069)" fill="#9cac3a"/>
  </g>
</svg>
