<svg xmlns="http://www.w3.org/2000/svg" width="21.545" height="21.545" viewBox="0 0 21.545 21.545">
  <g id="Group_2852" data-name="Group 2852" transform="translate(-18 -373.796)">
    <path id="Path_18859" data-name="Path 18859" d="M8.3,7.182H1.571A1.573,1.573,0,0,1,0,5.611V1.571A1.573,1.573,0,0,1,1.571,0H8.3A1.573,1.573,0,0,1,9.875,1.571v4.04A1.573,1.573,0,0,1,8.3,7.182ZM1.571,1.347a.225.225,0,0,0-.224.224v4.04a.225.225,0,0,0,.224.225H8.3a.225.225,0,0,0,.225-.225V1.571A.225.225,0,0,0,8.3,1.347Zm0,0" transform="translate(18 373.796)" fill="#9cac3a"/>
    <path id="Path_18860" data-name="Path 18860" d="M8.3,225.9H1.571A1.573,1.573,0,0,1,0,224.329V214.9a1.573,1.573,0,0,1,1.571-1.571H8.3A1.573,1.573,0,0,1,9.875,214.9v9.426A1.573,1.573,0,0,1,8.3,225.9ZM1.571,214.679a.225.225,0,0,0-.224.225v9.426a.225.225,0,0,0,.224.224H8.3a.225.225,0,0,0,.225-.224V214.9a.225.225,0,0,0-.225-.225Zm0,0" transform="translate(18 169.441)" fill="#9cac3a"/>
    <path id="Path_18861" data-name="Path 18861" d="M285.636,348.514H278.9a1.573,1.573,0,0,1-1.571-1.571V342.9a1.573,1.573,0,0,1,1.571-1.571h6.733a1.573,1.573,0,0,1,1.571,1.571v4.04A1.573,1.573,0,0,1,285.636,348.514Zm-6.733-5.835a.225.225,0,0,0-.225.224v4.04a.225.225,0,0,0,.225.224h6.733a.225.225,0,0,0,.224-.224V342.9a.225.225,0,0,0-.224-.224Zm0,0" transform="translate(-247.662 46.828)" fill="#9cac3a"/>
    <path id="Path_18862" data-name="Path 18862" d="M285.636,12.568H278.9A1.573,1.573,0,0,1,277.332,11V1.571A1.573,1.573,0,0,1,278.9,0h6.733a1.573,1.573,0,0,1,1.571,1.571V11A1.573,1.573,0,0,1,285.636,12.568ZM278.9,1.347a.225.225,0,0,0-.225.224V11a.225.225,0,0,0,.225.225h6.733A.225.225,0,0,0,285.86,11V1.571a.225.225,0,0,0-.224-.224Zm0,0" transform="translate(-247.662 373.796)" fill="#9cac3a"/>
  </g>
</svg>
