<svg xmlns="http://www.w3.org/2000/svg" width="39.755" height="39.755" viewBox="0 0 39.755 39.755">
  <g id="_993904" data-name="993904" transform="translate(0)">
    <g id="Group_221" data-name="Group 221" transform="translate(0 0)">
      <g id="Group_220" data-name="Group 220" transform="translate(0 0)">
        <path id="Path_504" data-name="Path 504" d="M39.27,17.255l-2.4-.672a17.153,17.153,0,0,0-.629-2.359l1.733-1.775a.666.666,0,0,0,.131-.738A19.984,19.984,0,0,0,36.06,8.167a.662.662,0,0,0-.7-.254l-2.4.615A17.426,17.426,0,0,0,31.228,6.8l.615-2.4a.666.666,0,0,0-.254-.7,19.974,19.974,0,0,0-3.544-2.05.662.662,0,0,0-.737.131L25.533,3.51a17.188,17.188,0,0,0-2.359-.629L22.5.486A.666.666,0,0,0,21.859,0H17.9a.666.666,0,0,0-.641.486l-.672,2.4a17.152,17.152,0,0,0-2.359.629L12.449,1.777a.663.663,0,0,0-.737-.131A19.977,19.977,0,0,0,8.167,3.7a.666.666,0,0,0-.254.7l.615,2.4A17.419,17.419,0,0,0,6.8,8.527L4.4,7.912a.66.66,0,0,0-.7.254,19.974,19.974,0,0,0-2.05,3.544.666.666,0,0,0,.131.737L3.51,14.223a17.2,17.2,0,0,0-.629,2.359l-2.4.672A.666.666,0,0,0,0,17.9v3.963a.666.666,0,0,0,.486.641l2.4.672a17.164,17.164,0,0,0,.629,2.359L1.777,27.307a.666.666,0,0,0-.131.737A19.976,19.976,0,0,0,3.7,31.588a.665.665,0,0,0,.7.254l2.4-.615a17.419,17.419,0,0,0,1.725,1.725l-.615,2.4a.666.666,0,0,0,.254.7,19.974,19.974,0,0,0,3.544,2.05.667.667,0,0,0,.737-.131l1.775-1.733a17.2,17.2,0,0,0,2.359.629l.672,2.4a.666.666,0,0,0,.641.486h3.963a.666.666,0,0,0,.641-.486l.672-2.395a17.25,17.25,0,0,0,2.359-.629l1.775,1.733a.666.666,0,0,0,.737.131,19.985,19.985,0,0,0,3.544-2.049.666.666,0,0,0,.254-.7l-.615-2.4a17.427,17.427,0,0,0,1.725-1.725l2.4.615a.665.665,0,0,0,.7-.254,19.97,19.97,0,0,0,2.05-3.544.666.666,0,0,0-.131-.737l-1.733-1.775a17.2,17.2,0,0,0,.629-2.359l2.4-.672a.666.666,0,0,0,.486-.641V17.9A.665.665,0,0,0,39.27,17.255Zm-.846,4.1L36.113,22a.666.666,0,0,0-.477.531,15.91,15.91,0,0,1-.782,2.932.665.665,0,0,0,.147.7l1.7,1.744a18.713,18.713,0,0,1-1.463,2.53l-2.362-.6a.661.661,0,0,0-.678.221A16.042,16.042,0,0,1,30.055,32.2a.667.667,0,0,0-.221.679l.6,2.362a18.632,18.632,0,0,1-2.53,1.463L26.164,35a.662.662,0,0,0-.7-.147,15.945,15.945,0,0,1-2.932.782.667.667,0,0,0-.531.477l-.649,2.31H18.4l-.649-2.311a.666.666,0,0,0-.531-.477,15.91,15.91,0,0,1-2.932-.782.662.662,0,0,0-.7.147l-1.744,1.7a18.719,18.719,0,0,1-2.53-1.463l.6-2.362A.666.666,0,0,0,9.7,32.2a16.042,16.042,0,0,1-2.145-2.146.668.668,0,0,0-.679-.221l-2.362.6a18.7,18.7,0,0,1-1.463-2.53l1.7-1.744a.665.665,0,0,0,.147-.7,15.887,15.887,0,0,1-.782-2.932A.666.666,0,0,0,3.643,22l-2.311-.649V18.4l2.311-.649a.666.666,0,0,0,.477-.531A15.911,15.911,0,0,1,4.9,14.289a.665.665,0,0,0-.147-.7l-1.7-1.744a18.713,18.713,0,0,1,1.463-2.53l2.362.6A.665.665,0,0,0,7.554,9.7,16.042,16.042,0,0,1,9.7,7.554a.667.667,0,0,0,.221-.679l-.6-2.362a18.692,18.692,0,0,1,2.531-1.463l1.744,1.7a.662.662,0,0,0,.7.147,15.932,15.932,0,0,1,2.931-.782.666.666,0,0,0,.531-.477L18.4,1.332h2.954L22,3.643a.666.666,0,0,0,.531.477,15.911,15.911,0,0,1,2.932.782.662.662,0,0,0,.7-.147l1.744-1.7a18.713,18.713,0,0,1,2.53,1.463l-.6,2.362a.666.666,0,0,0,.221.678A16.042,16.042,0,0,1,32.2,9.7a.664.664,0,0,0,.679.221l2.362-.6a18.632,18.632,0,0,1,1.463,2.53L35,13.591a.665.665,0,0,0-.147.7,15.932,15.932,0,0,1,.782,2.931.666.666,0,0,0,.477.531l2.311.649Z" transform="translate(0 0)" fill="#9cac3a"/>
      </g>
    </g>
    <g id="Group_223" data-name="Group 223" transform="translate(6.559 6.559)">
      <g id="Group_222" data-name="Group 222">
        <path id="Path_505" data-name="Path 505" d="M92.108,78.789a13.319,13.319,0,1,0,13.319,13.319A13.319,13.319,0,0,0,92.108,78.789Zm8.921,21.3L99.642,98.7l-.942.942,1.386,1.386a11.921,11.921,0,0,1-7.313,3.033V102.1H91.442v1.964a11.921,11.921,0,0,1-7.313-3.033l1.386-1.386-.942-.942-1.386,1.386a11.92,11.92,0,0,1-3.033-7.313h1.964V91.442H80.155a11.921,11.921,0,0,1,3.033-7.313l1.386,1.386.942-.942-1.386-1.386a11.921,11.921,0,0,1,7.313-3.033v1.964h1.332V80.155a11.921,11.921,0,0,1,7.313,3.033L98.7,84.574l.942.942,1.386-1.386a11.92,11.92,0,0,1,3.033,7.313H102.1v1.332h1.964A11.922,11.922,0,0,1,101.029,100.087Z" transform="translate(-78.789 -78.789)" fill="#9cac3a"/>
      </g>
    </g>
    <g id="Group_225" data-name="Group 225" transform="translate(17.214 13.884)">
      <g id="Group_224" data-name="Group 224">
        <path id="Path_506" data-name="Path 506" d="M215.151,166.9a.666.666,0,0,0-.739,0l-4.833,3.222c-.042,0-.083,0-.125,0a2.664,2.664,0,1,0,2.664,2.664c0-.042,0-.083,0-.124l3.222-4.834A.666.666,0,0,0,215.151,166.9Zm-4.282,5.223a.7.7,0,0,0-.1.481,1.146,1.146,0,0,1,.02.178,1.332,1.332,0,1,1-1.332-1.332,1.253,1.253,0,0,1,.191.022.672.672,0,0,0,.468-.1l2.267-1.511Z" transform="translate(-206.79 -166.79)" fill="#9cac3a"/>
      </g>
    </g>
  </g>
</svg>
