<svg id="_782107" data-name="782107" xmlns="http://www.w3.org/2000/svg" width="39.745" height="31.005" viewBox="0 0 39.745 31.005">
  <g id="Group_179" data-name="Group 179" transform="translate(0 0)">
    <g id="Group_178" data-name="Group 178">
      <path id="Path_483" data-name="Path 483" d="M37.152,56.3H2.593A2.6,2.6,0,0,0,0,58.891V84.71A2.6,2.6,0,0,0,2.593,87.3H25.5a.585.585,0,0,0,0-1.17H21.4a1.662,1.662,0,0,0,.089-.537,2.125,2.125,0,0,0-.783-1.5h3.538a.585.585,0,1,0,0-1.17H19.879c.037-.246.191-.3.722-.907H24.53a.845.845,0,0,0,.843-.843v-5.14a.845.845,0,0,0-.843-.844H18.091a1.665,1.665,0,0,0-1.323-.652c-.581,0-.846.261-2.09.8a.5.5,0,0,1-.642-.209l-.749-1.336a1.668,1.668,0,0,0-2.91,0l-.75,1.336a.5.5,0,0,1-.435.254c-.187,0-.175-.046-1.6-.686a1.667,1.667,0,0,0-2.354,1.71c.189,1.619.183,1.535.183,1.58a.5.5,0,0,1-.4.487l-1.5.3a1.67,1.67,0,0,0-.9,2.768c.957,1.093,1.171,1.131,1.171,1.463s-.229.387-1.171,1.463a1.656,1.656,0,0,0-.367,1.623,1.426,1.426,0,0,1-1.084-1.382V62.429h37.4V84.71a1.424,1.424,0,0,1-1.422,1.422H27.841a.585.585,0,1,0,0,1.17h9.311a2.6,2.6,0,0,0,2.593-2.593V58.891A2.6,2.6,0,0,0,37.152,56.3ZM18.428,76.366H24.2v4.487H21.428a1.674,1.674,0,0,0-1.283-2.077l-1.5-.3a.5.5,0,0,1-.4-.487C18.243,77.914,18.425,76.431,18.428,76.366Zm-14.946,8.9,1.038-1.125a1.669,1.669,0,0,0,0-2.264L3.482,80.748a.5.5,0,0,1,.268-.826l1.5-.3a1.67,1.67,0,0,0,1.33-1.831C6.4,76.2,6.4,76.262,6.4,76.207a.5.5,0,0,1,.706-.446c1.253.538,1.5.793,2.088.793a1.669,1.669,0,0,0,1.455-.852l.75-1.336a.5.5,0,0,1,.868,0l.749,1.336a1.669,1.669,0,0,0,2.152.7c1.52-.7,1.45-.687,1.6-.687a.5.5,0,0,1,.5.494c0,.168-.194,1.524-.194,1.781a1.671,1.671,0,0,0,1.341,1.635l1.5.3a.5.5,0,0,1,.4.493.619.619,0,0,1-.229.436c-.9.978-1.386,1.321-1.386,2.154a1.667,1.667,0,0,0,.442,1.131l1.039,1.125a.5.5,0,0,1-.268.825l-.222.044H3.973l-.222-.044A.5.5,0,0,1,3.482,85.262Zm35.092-24H1.17V58.891a1.424,1.424,0,0,1,1.422-1.422H37.152a1.424,1.424,0,0,1,1.422,1.422Z" transform="translate(0 -56.298)" fill="#9cac3a"/>
    </g>
  </g>
  <g id="Group_181" data-name="Group 181" transform="translate(34.645 1.811)">
    <g id="Group_180" data-name="Group 180" transform="translate(0 0)">
      <path id="Path_484" data-name="Path 484" d="M448.68,81.027l.424-.375a.585.585,0,0,0-.776-.876l-.53.47-.531-.47a.585.585,0,0,0-.776.876l.424.375-.424.375a.586.586,0,0,0,.388,1.023c.351,0,.477-.268.918-.617.44.348.567.617.918.617A.586.586,0,0,0,449.1,81.4Z" transform="translate(-446.294 -79.628)" fill="#9cac3a"/>
    </g>
  </g>
  <g id="Group_183" data-name="Group 183" transform="translate(3.322 6.724)">
    <g id="Group_182" data-name="Group 182">
      <path id="Path_485" data-name="Path 485" d="M50.925,143.914a5.11,5.11,0,0,0-7.628,1.872.624.624,0,0,0,1.122.547,3.858,3.858,0,1,1-.377,1.955.624.624,0,1,0-1.245.088,5.1,5.1,0,1,0,8.128-4.461Z" transform="translate(-42.796 -142.913)" fill="#9cac3a"/>
    </g>
  </g>
  <g id="Group_185" data-name="Group 185" transform="translate(6.589 8.518)">
    <g id="Group_184" data-name="Group 184" transform="translate(0 0)">
      <path id="Path_486" data-name="Path 486" d="M86.708,166.031a.585.585,0,0,0-.585.585v1.907l-.258-.239a.585.585,0,0,0-.795.859l1.241,1.148a.586.586,0,0,0,.983-.43v-3.246A.585.585,0,0,0,86.708,166.031Z" transform="translate(-84.882 -166.031)" fill="#9cac3a"/>
    </g>
  </g>
  <g id="Group_195" data-name="Group 195" transform="translate(15.62 8.275)">
    <g id="Group_194" data-name="Group 194" transform="translate(0 0)">
      <path id="Path_491" data-name="Path 491" d="M210.134,162.9h-8.066a.845.845,0,0,0-.844.844v5.14a.845.845,0,0,0,.844.844h8.066a.845.845,0,0,0,.844-.844v-5.14A.845.845,0,0,0,210.134,162.9Zm-.327,5.658h-7.413v-4.487h7.413Z" transform="translate(-201.224 -162.902)" fill="#9cac3a"/>
    </g>
  </g>
  <g id="Group_197" data-name="Group 197" transform="translate(27.356 8.275)">
    <g id="Group_196" data-name="Group 196" transform="translate(0 0)">
      <path id="Path_492" data-name="Path 492" d="M361.315,162.9h-8.066a.845.845,0,0,0-.844.844v5.14a.845.845,0,0,0,.844.844h8.066a.845.845,0,0,0,.844-.844v-5.14A.845.845,0,0,0,361.315,162.9Zm-.327,5.658h-7.412v-4.487h7.412Z" transform="translate(-352.405 -162.902)" fill="#9cac3a"/>
    </g>
  </g>
  <g id="Group_199" data-name="Group 199" transform="translate(27.356 18.897)">
    <g id="Group_198" data-name="Group 198">
      <path id="Path_493" data-name="Path 493" d="M361.314,299.731h-8.066a.845.845,0,0,0-.844.844v5.14h0a.845.845,0,0,0,.844.844h8.066a.845.845,0,0,0,.844-.844v-5.14A.845.845,0,0,0,361.314,299.731Zm-.327,5.657h-7.413V300.9h7.413Z" transform="translate(-352.404 -299.731)" fill="#9cac3a"/>
    </g>
  </g>
  <g id="Group_201" data-name="Group 201" transform="translate(3.205 2.642)">
    <g id="Group_200" data-name="Group 200">
      <path id="Path_494" data-name="Path 494" d="M47.847,90.332H41.876a.585.585,0,1,0,0,1.17h5.971a.585.585,0,1,0,0-1.17Z" transform="translate(-41.291 -90.332)" fill="#9cac3a"/>
    </g>
  </g>
  <g id="Group_203" data-name="Group 203" transform="translate(11.517 2.642)">
    <g id="Group_202" data-name="Group 202">
      <path id="Path_495" data-name="Path 495" d="M168.451,90.332H148.944a.585.585,0,1,0,0,1.17h19.507a.585.585,0,1,0,0-1.17Z" transform="translate(-148.359 -90.332)" fill="#9cac3a"/>
    </g>
  </g>
  <g id="Group_205" data-name="Group 205" transform="translate(16.167 16.01)">
    <g id="Group_204" data-name="Group 204">
      <path id="Path_496" data-name="Path 496" d="M216.336,262.538h-7.491a.585.585,0,0,0,0,1.17h7.491a.585.585,0,1,0,0-1.17Z" transform="translate(-208.26 -262.538)" fill="#9cac3a"/>
    </g>
  </g>
  <g id="Group_207" data-name="Group 207" transform="translate(27.902 16.01)">
    <g id="Group_206" data-name="Group 206">
      <path id="Path_497" data-name="Path 497" d="M367.516,262.538h-7.491a.585.585,0,1,0,0,1.17h7.491a.585.585,0,0,0,0-1.17Z" transform="translate(-359.44 -262.538)" fill="#9cac3a"/>
    </g>
  </g>
  <g id="Group_209" data-name="Group 209" transform="translate(27.902 26.632)">
    <g id="Group_208" data-name="Group 208">
      <path id="Path_498" data-name="Path 498" d="M367.516,399.368h-7.491a.585.585,0,1,0,0,1.17h7.491a.585.585,0,0,0,0-1.17Z" transform="translate(-359.44 -399.368)" fill="#9cac3a"/>
    </g>
  </g>
</svg>
