<svg xmlns="http://www.w3.org/2000/svg" width="27.774" height="26.404" viewBox="0 0 27.774 26.404">
  <g id="Group_2856" data-name="Group 2856" transform="translate(-15 -697.396)">
    <g id="Group_2859" data-name="Group 2859">
      <path id="Path_18865" data-name="Path 18865" d="M27.724,108.147a2.365,2.365,0,0,0-2.843-1.824l-2.895.663V105.8a11.435,11.435,0,0,0,1.615-1.914,11.219,11.219,0,0,0,1.586-3.735,11.444,11.444,0,0,0,.022-4.858.543.543,0,0,0-1.061.227,10.345,10.345,0,0,1-.02,4.394,10.138,10.138,0,0,1-1.433,3.375,9.657,9.657,0,0,1-.709.936V98.214a.542.542,0,0,0-.542-.542H17.152V91.879a.543.543,0,0,0-.541-.542l-4.834-.016h0a.543.543,0,0,0-.542.542v3.013H6.942a.543.543,0,0,0-.542.542v5.372H5.191v-.737a.542.542,0,0,0-.542-.542H4.092a10.267,10.267,0,0,1,.443-5.32c.1-.279.216-.557.341-.826a.542.542,0,1,0-.983-.458c-.139.3-.266.606-.378.914a11.336,11.336,0,0,0-.524,5.69H.542a.542.542,0,0,0-.542.542v9.535a.542.542,0,0,0,.542.542H4.648a.542.542,0,0,0,.542-.542v-.516H7.231l8.266,3.242a6.529,6.529,0,0,0,4.015.251l6.479-1.647a2.36,2.36,0,0,0,1.733-2.773ZM20.9,98.757v8.477l-1.45.332c-.156.036-.314.064-.472.086a5.507,5.507,0,0,1-1.819-.053l-.008,0v-.823a2.512,2.512,0,0,0,.334-2.113,2.436,2.436,0,0,0-.255-.569q-.037-.06-.078-.118V98.757H20.9Zm-8.582-6.35,3.749.012v10.692l-2.1-.867-1.654-.685ZM7.484,95.961h3.749v5.149l-.673-.278a.542.542,0,0,0-.207-.041H7.484ZM4.106,109.047H1.085V100.6H4.106Zm21.618.822-6.479,1.647a5.452,5.452,0,0,1-3.351-.21l-8.361-3.28a.542.542,0,0,0-.2-.037H5.191v-6.113h5.054l3.51,1.453,1.921.8a1.357,1.357,0,0,1,.726,1.758,1.551,1.551,0,0,1-.217.381,1.4,1.4,0,0,1-1.422.491l-.013,0c-.031-.008-.063-.017-.093-.027l-3.65-1.4-.045-.017a.542.542,0,0,0-.389,1.013s2.058.791,3.627,1.4l.095.034,1.205.463a9.962,9.962,0,0,0,1.106.376,6.582,6.582,0,0,0,3.089.039l1.871-.428.006,0,3.553-.813a1.28,1.28,0,0,1,.6,2.488Zm0,0" transform="translate(15 611.029)" fill="#9cac3a"/>
      <path id="Path_18866" data-name="Path 18866" d="M118.419,3.858a.54.54,0,0,0,.363-.14,10.194,10.194,0,0,1,7.532-2.612,10.175,10.175,0,0,1,2.957.644.542.542,0,0,0,.386-1.014,11.257,11.257,0,0,0-3.272-.713,11.279,11.279,0,0,0-8.33,2.889.542.542,0,0,0,.364.945Zm0,0" transform="translate(-96.482 697.396)" fill="#9cac3a"/>
      <path id="Path_18867" data-name="Path 18867" d="M351.632,36.329a.543.543,0,0,0,.765-.054l4.463-5.138a.542.542,0,1,0-.819-.712l-4.463,5.138A.542.542,0,0,0,351.632,36.329Zm0,0" transform="translate(-317.381 668.797)" fill="#9cac3a"/>
      <path id="Path_18868" data-name="Path 18868" d="M404.873,99.738a1.362,1.362,0,1,0,1.362,1.362A1.363,1.363,0,0,0,404.873,99.738Zm0,1.639a.277.277,0,1,1,.277-.277A.277.277,0,0,1,404.873,101.377Zm0,0" transform="translate(-366.622 603.068)" fill="#9cac3a"/>
      <path id="Path_18869" data-name="Path 18869" d="M349.342,29.989a1.362,1.362,0,1,0-1.362-1.362A1.363,1.363,0,0,0,349.342,29.989Zm0-1.639a.277.277,0,1,1-.277.277A.277.277,0,0,1,349.342,28.35Zm0,0" transform="translate(-314.104 671.609)" fill="#9cac3a"/>
      <path id="Path_18870" data-name="Path 18870" d="M91.622,81.574a.542.542,0,1,0,.2-.659.547.547,0,0,0-.2.659Zm0,0" transform="translate(-71.613 620.955)" fill="#9cac3a"/>
    </g>
  </g>
</svg>
