<svg xmlns="http://www.w3.org/2000/svg" width="23.333" height="23.333" viewBox="0 0 23.333 23.333">
  <g id="Group_2850" data-name="Group 2850" transform="translate(-17 -208.333)">
    <path id="Path_18855" data-name="Path 18855" d="M12.4,23.333H10.934a2.15,2.15,0,0,1-2.148-2.148v-.5a9.42,9.42,0,0,1-1.463-.607l-.351.351a2.148,2.148,0,0,1-3.038,0L2.9,19.4a2.148,2.148,0,0,1,0-3.038l.351-.351a9.42,9.42,0,0,1-.607-1.463h-.5A2.15,2.15,0,0,1,0,12.4V10.934A2.15,2.15,0,0,1,2.148,8.786h.5a9.422,9.422,0,0,1,.607-1.463L2.9,6.973a2.148,2.148,0,0,1,0-3.038L3.935,2.9a2.148,2.148,0,0,1,3.038,0l.351.351a9.429,9.429,0,0,1,1.463-.607v-.5A2.15,2.15,0,0,1,10.934,0H12.4a2.15,2.15,0,0,1,2.148,2.148v.5a9.42,9.42,0,0,1,1.463.607l.351-.351a2.148,2.148,0,0,1,3.038,0l1.035,1.035a2.148,2.148,0,0,1,0,3.038l-.351.351a9.42,9.42,0,0,1,.607,1.463h.5a2.15,2.15,0,0,1,2.148,2.148V12.4a2.15,2.15,0,0,1-2.148,2.148h-.5a9.422,9.422,0,0,1-.607,1.463l.351.351a2.148,2.148,0,0,1,0,3.038L19.4,20.434a2.148,2.148,0,0,1-3.038,0l-.351-.351a9.429,9.429,0,0,1-1.463.607v.5A2.15,2.15,0,0,1,12.4,23.333ZM7.552,18.647a8.058,8.058,0,0,0,2.089.867.684.684,0,0,1,.513.662v1.009a.782.782,0,0,0,.781.781H12.4a.782.782,0,0,0,.781-.781V20.176a.684.684,0,0,1,.513-.662,8.058,8.058,0,0,0,2.089-.867.684.684,0,0,1,.831.105l.715.715a.781.781,0,0,0,1.1,0l1.036-1.036a.781.781,0,0,0,0-1.1l-.715-.715a.684.684,0,0,1-.105-.831,8.056,8.056,0,0,0,.867-2.089.684.684,0,0,1,.662-.513h1.009a.782.782,0,0,0,.781-.781V10.934a.782.782,0,0,0-.781-.781H20.176a.684.684,0,0,1-.662-.513,8.058,8.058,0,0,0-.867-2.089.684.684,0,0,1,.105-.831l.715-.715a.781.781,0,0,0,0-1.1L18.432,3.866a.781.781,0,0,0-1.1,0l-.715.715a.684.684,0,0,1-.831.105,8.058,8.058,0,0,0-2.089-.867.684.684,0,0,1-.513-.662V2.148a.782.782,0,0,0-.781-.781H10.935a.782.782,0,0,0-.781.781V3.157a.684.684,0,0,1-.513.662,8.058,8.058,0,0,0-2.089.867.684.684,0,0,1-.831-.105l-.715-.715a.781.781,0,0,0-1.1,0L3.866,4.9a.781.781,0,0,0,0,1.1l.715.715a.684.684,0,0,1,.105.831,8.056,8.056,0,0,0-.867,2.089.684.684,0,0,1-.662.513H2.148a.782.782,0,0,0-.781.781V12.4a.782.782,0,0,0,.781.781H3.157a.684.684,0,0,1,.662.513,8.058,8.058,0,0,0,.867,2.089.684.684,0,0,1-.105.831l-.715.715a.781.781,0,0,0,0,1.1L4.9,19.467a.781.781,0,0,0,1.1,0l.715-.715a.687.687,0,0,1,.831-.1Z" transform="translate(17 208.333)" fill="#9cac3a"/>
    <path id="Path_18856" data-name="Path 18856" d="M149.677,154.754a5.077,5.077,0,1,1,5.077-5.077A5.083,5.083,0,0,1,149.677,154.754Zm0-8.786a3.71,3.71,0,1,0,3.71,3.71A3.714,3.714,0,0,0,149.677,145.967Z" transform="translate(-121.01 70.323)" fill="#9cac3a"/>
  </g>
</svg>
