<svg xmlns="http://www.w3.org/2000/svg" width="23.09" height="20.16" viewBox="0 0 23.09 20.16">
  <g id="dddd" transform="translate(0 -31.05)">
    <g id="Group_2773" data-name="Group 2773" transform="translate(0 31.05)">
      <path id="Path_18929" data-name="Path 18929" d="M252.894,263.75h-3.137a1.558,1.558,0,0,0-1.557,1.557v2.406a1.558,1.558,0,0,0,1.557,1.557h3.137a1.558,1.558,0,0,0,1.557-1.557v-2.406A1.558,1.558,0,0,0,252.894,263.75Zm.425,3.963a.426.426,0,0,1-.425.425h-3.137a.426.426,0,0,1-.425-.425v-2.406a.426.426,0,0,1,.425-.425h3.137a.426.426,0,0,1,.425.425Z" transform="translate(-236.49 -252.771)" fill="#9cac3a"/>
      <path id="Path_18930" data-name="Path 18930" d="M23.09,37.655a.526.526,0,0,0-.075-.278L19.58,31.338a.569.569,0,0,0-.491-.288H4a.56.56,0,0,0-.491.288L.075,37.377A.572.572,0,0,0,0,37.655a3.312,3.312,0,0,0,1.982,3.029v9.96a.568.568,0,0,0,.566.566h17.99a.568.568,0,0,0,.566-.566V40.755a.249.249,0,0,0,0-.061A3.321,3.321,0,0,0,23.09,37.655ZM4.326,32.187H18.759l2.685,4.723H1.647Zm12.106,5.85a2.176,2.176,0,0,1-4.284,0Zm-5.487,0a2.179,2.179,0,0,1-4.289,0Zm-9.776,0H5.459a2.179,2.179,0,0,1-4.289,0Zm8.341,12.04H6.256v-6.11a.806.806,0,0,1,.807-.807H8.709a.806.806,0,0,1,.807.807v6.11Zm10.46,0H10.644v-6.11A1.942,1.942,0,0,0,8.7,42.029H7.058a1.942,1.942,0,0,0-1.939,1.939v6.115H3.114v-9.12c.066,0,.132,0,.2,0A3.308,3.308,0,0,0,6.058,39.5a3.309,3.309,0,0,0,5.492,0,3.3,3.3,0,0,0,5.482,0,3.308,3.308,0,0,0,2.746,1.463c.066,0,.127,0,.193,0v9.115Zm-.193-10.243a2.175,2.175,0,0,1-2.142-1.793h4.289A2.188,2.188,0,0,1,19.778,39.835Z" transform="translate(0 -31.05)" fill="#9cac3a"/>
    </g>
  </g>
</svg>
