<svg xmlns="http://www.w3.org/2000/svg" width="112.378" height="37.048" viewBox="0 0 112.378 37.048">
  <g id="Group_143" data-name="Group 143" transform="translate(-73.667 -221.211)">
    <path id="Path_1" data-name="Path 1" d="M-314.117,369.733c0-2.915-.051-5.831.015-8.745.061-2.712,1.513-4.134,4.061-4.151,2.611-.016,4.213,1.5,4.243,4.249.06,5.541-.024,11.082.048,16.622.047,3.619,1.894,6.293,4.868,7.375,3.391,1.235,7.69.6,9.551-1.94a10.84,10.84,0,0,0,2.041-5.557c.268-5.455.059-10.932.112-16.4.033-3.395,2.768-5.345,5.839-3.974,1.069.477,2.376,1.948,2.389,2.98.089,6.838.5,13.767-.428,20.5-1.316,9.544-8.412,13.557-16.924,13.09-9.864-.541-15.63-6.641-15.726-15.958" transform="translate(466.826 -135.561)" fill="#9cac3a"/>
    <path id="Path_2" data-name="Path 2" d="M-422.284,368.55c3.28-3.27,6.571-6.33,9.59-9.634a4.627,4.627,0,0,1,6.58-.461c1.315,1.288,1.486,4.6-.541,6.376-3.483,3.045-6.6,6.495-9.956,9.688a4.549,4.549,0,0,0-1.618,3.756c.122,3.522.064,7.052.029,10.579-.031,3.127-1.611,4.935-4.247,4.965-2.565.028-4.213-1.608-4.332-4.642-.14-3.594.053-7.2-.16-10.789a6.084,6.084,0,0,0-1.491-3.539c-3.063-3.271-6.339-6.348-9.511-9.521a9.575,9.575,0,0,1-1.63-2,3.9,3.9,0,0,1,1.077-5.208,4.011,4.011,0,0,1,5.359.257c2.806,2.614,5.553,5.291,8.337,7.929.776.735,1.594,1.426,2.514,2.245" transform="translate(513.8 -135.726)" fill="#9cac3a"/>
    <g id="Group_141" data-name="Group 141" transform="translate(111.228 221.387)">
      <path id="Path_3" data-name="Path 3" d="M-345.437,357.782a.737.737,0,0,0,.744.73.738.738,0,0,0,.744-.73.738.738,0,0,0-.744-.73.737.737,0,0,0-.744.73" transform="translate(367.267 -357.052)" fill="#4791c4"/>
      <path id="Path_4" data-name="Path 4" d="M-334.85,379.436a.737.737,0,0,0,.744.73.738.738,0,0,0,.744-.73.738.738,0,0,0-.744-.73.737.737,0,0,0-.744.73" transform="translate(363.32 -365.125)" fill="#4791c4"/>
      <path id="Path_5" data-name="Path 5" d="M-323.231,391.373a.737.737,0,0,0,.744.73.738.738,0,0,0,.744-.73.738.738,0,0,0-.744-.73.737.737,0,0,0-.744.73" transform="translate(358.989 -369.575)" fill="#4791c4"/>
      <path id="Path_6" data-name="Path 6" d="M-345.441,402.035a.737.737,0,0,0,.745.73.738.738,0,0,0,.744-.73.738.738,0,0,0-.744-.73.737.737,0,0,0-.745.73" transform="translate(367.269 -373.55)" fill="#4791c4"/>
      <path id="Path_7" data-name="Path 7" d="M-357.734,368.911a.737.737,0,0,0,.745.73.738.738,0,0,0,.744-.73.737.737,0,0,0-.744-.729.737.737,0,0,0-.745.729" transform="translate(371.852 -361.201)" fill="#4791c4"/>
      <path id="Path_8" data-name="Path 8" d="M-357.734,413.429a.737.737,0,0,0,.745.73.738.738,0,0,0,.744-.73.738.738,0,0,0-.744-.73.737.737,0,0,0-.745.73" transform="translate(371.852 -377.798)" fill="#4791c4"/>
      <path id="Path_9" data-name="Path 9" d="M-368,391.393a.737.737,0,0,0,.745.73.737.737,0,0,0,.744-.73.737.737,0,0,0-.744-.729.737.737,0,0,0-.745.729" transform="translate(375.68 -369.583)" fill="#4791c4"/>
      <path id="Path_10" data-name="Path 10" d="M-380.244,379.554a.737.737,0,0,0,.744.73.738.738,0,0,0,.744-.73.737.737,0,0,0-.744-.73.737.737,0,0,0-.744.73" transform="translate(380.244 -365.169)" fill="#4791c4"/>
      <path id="Path_11" data-name="Path 11" d="M-341.354,359.07a1,1,0,0,0,1.012.993,1,1,0,0,0,1.012-.993,1,1,0,0,0-1.012-.993,1,1,0,0,0-1.012.993" transform="translate(365.745 -357.434)" fill="#dd1863"/>
      <path id="Path_12" data-name="Path 12" d="M-362.719,370.152a1,1,0,0,0,1.012.993,1,1,0,0,0,1.012-.993,1,1,0,0,0-1.012-.992,1,1,0,0,0-1.012.992" transform="translate(373.71 -361.566)" fill="#dd1863"/>
      <path id="Path_13" data-name="Path 13" d="M-378.861,374.9a1,1,0,0,0,1.012.993,1,1,0,0,0,1.012-.993,1,1,0,0,0-1.012-.993,1,1,0,0,0-1.012.993" transform="translate(379.728 -363.337)" fill="#dd1863"/>
      <path id="Path_14" data-name="Path 14" d="M-336.808,374.882a1,1,0,0,0,1.012.993,1,1,0,0,0,1.012-.993,1,1,0,0,0-1.012-.993,1,1,0,0,0-1.012.993" transform="translate(364.05 -363.329)" fill="#dd1863"/>
      <path id="Path_15" data-name="Path 15" d="M-341.15,400.4a1,1,0,0,0,1.012.993,1,1,0,0,0,1.012-.993,1,1,0,0,0-1.012-.993,1,1,0,0,0-1.012.993" transform="translate(365.669 -372.842)" fill="#dd1863"/>
      <path id="Path_16" data-name="Path 16" d="M-325.117,395.578a1,1,0,0,0,1.012.993,1,1,0,0,0,1.012-.993,1,1,0,0,0-1.012-.993,1,1,0,0,0-1.012.993" transform="translate(359.692 -371.045)" fill="#dd1863"/>
      <path id="Path_17" data-name="Path 17" d="M-367.277,395.764a1,1,0,0,0,1.012.993,1,1,0,0,0,1.012-.993,1,1,0,0,0-1.012-.993,1,1,0,0,0-1.012.993" transform="translate(375.41 -371.114)" fill="#dd1863"/>
      <path id="Path_18" data-name="Path 18" d="M-362.584,411.609a1,1,0,0,0,1.012.993,1,1,0,0,0,1.012-.993,1,1,0,0,0-1.012-.993,1,1,0,0,0-1.012.993" transform="translate(373.66 -377.022)" fill="#dd1863"/>
      <path id="Path_19" data-name="Path 19" d="M-341.421,368.505a1.593,1.593,0,0,0,1.608,1.577,1.593,1.593,0,0,0,1.608-1.577,1.593,1.593,0,0,0-1.608-1.577,1.593,1.593,0,0,0-1.608,1.577" transform="translate(365.77 -360.734)" fill="#8a3e96"/>
      <path id="Path_20" data-name="Path 20" d="M-336.293,396.351a1.593,1.593,0,0,0,1.608,1.577,1.593,1.593,0,0,0,1.608-1.577,1.593,1.593,0,0,0-1.608-1.577,1.593,1.593,0,0,0-1.608,1.577" transform="translate(363.858 -371.115)" fill="#8a3e96"/>
      <path id="Path_21" data-name="Path 21" d="M-364.495,401.008a1.593,1.593,0,0,0,1.608,1.577,1.593,1.593,0,0,0,1.608-1.577,1.593,1.593,0,0,0-1.608-1.577,1.593,1.593,0,0,0-1.608,1.577" transform="translate(374.372 -372.852)" fill="#8a3e96"/>
      <path id="Path_22" data-name="Path 22" d="M-369.622,373.348a1.594,1.594,0,0,0,1.608,1.578,1.594,1.594,0,0,0,1.608-1.578,1.593,1.593,0,0,0-1.608-1.577,1.593,1.593,0,0,0-1.608,1.577" transform="translate(376.284 -362.54)" fill="#8a3e96"/>
      <path id="Path_23" data-name="Path 23" d="M-336.227,362.726a1.593,1.593,0,0,0,1.608,1.577,1.593,1.593,0,0,0,1.608-1.577,1.593,1.593,0,0,0-1.608-1.577,1.593,1.593,0,0,0-1.608,1.577" transform="translate(363.834 -358.579)" fill="#dd1863"/>
      <path id="Path_24" data-name="Path 24" d="M-330.027,401.008a1.593,1.593,0,0,0,1.608,1.577,1.593,1.593,0,0,0,1.608-1.577,1.593,1.593,0,0,0-1.608-1.577,1.593,1.593,0,0,0-1.608,1.577" transform="translate(361.522 -372.852)" fill="#dd1863"/>
      <path id="Path_25" data-name="Path 25" d="M-369.561,407.262a1.593,1.593,0,0,0,1.608,1.577,1.593,1.593,0,0,0,1.608-1.577,1.593,1.593,0,0,0-1.608-1.577,1.593,1.593,0,0,0-1.608,1.577" transform="translate(376.261 -375.183)" fill="#dd1863"/>
      <path id="Path_26" data-name="Path 26" d="M-375.984,368.784a1.593,1.593,0,0,0,1.608,1.577,1.593,1.593,0,0,0,1.608-1.577,1.593,1.593,0,0,0-1.608-1.577,1.593,1.593,0,0,0-1.608,1.577" transform="translate(378.656 -360.838)" fill="#dd1863"/>
      <path id="Path_27" data-name="Path 27" d="M-332.1,369.5a2.272,2.272,0,0,0,2.293,2.249,2.271,2.271,0,0,0,2.292-2.249,2.271,2.271,0,0,0-2.292-2.249A2.272,2.272,0,0,0-332.1,369.5" transform="translate(362.294 -360.854)" fill="#8a3e96"/>
      <path id="Path_28" data-name="Path 28" d="M-331.812,388.9a2.2,2.2,0,0,0,2.224,2.181,2.2,2.2,0,0,0,2.225-2.181,2.2,2.2,0,0,0-2.225-2.181,2.2,2.2,0,0,0-2.224,2.181" transform="translate(362.188 -368.111)" fill="#f2d63b"/>
      <path id="Path_29" data-name="Path 29" d="M-338.268,406.033a2.2,2.2,0,0,0,2.224,2.181,2.2,2.2,0,0,0,2.225-2.181,2.2,2.2,0,0,0-2.225-2.181,2.2,2.2,0,0,0-2.224,2.181" transform="translate(364.595 -374.5)" fill="#aac138"/>
      <path id="Path_30" data-name="Path 30" d="M-349.568,363.285a2.2,2.2,0,0,0,2.224,2.181,2.2,2.2,0,0,0,2.225-2.181,2.2,2.2,0,0,0-2.225-2.181,2.2,2.2,0,0,0-2.224,2.181" transform="translate(368.807 -358.563)" fill="#aac138"/>
      <path id="Path_31" data-name="Path 31" d="M-369.7,363.1a2.2,2.2,0,0,0,2.224,2.181,2.2,2.2,0,0,0,2.225-2.181,2.2,2.2,0,0,0-2.225-2.181A2.2,2.2,0,0,0-369.7,363.1" transform="translate(376.312 -358.493)" fill="#f2d63b"/>
      <path id="Path_32" data-name="Path 32" d="M-375.965,380.235a2.2,2.2,0,0,0,2.224,2.181,2.2,2.2,0,0,0,2.225-2.181,2.2,2.2,0,0,0-2.225-2.181,2.2,2.2,0,0,0-2.224,2.181" transform="translate(378.649 -364.882)" fill="#f2d63b"/>
      <path id="Path_33" data-name="Path 33" d="M-375.965,399.793a2.2,2.2,0,0,0,2.224,2.181,2.2,2.2,0,0,0,2.225-2.181,2.2,2.2,0,0,0-2.225-2.181,2.2,2.2,0,0,0-2.224,2.181" transform="translate(378.649 -372.173)" fill="#dd1863"/>
      <path id="Path_34" data-name="Path 34" d="M-358.114,405.94a2.2,2.2,0,0,0,2.224,2.181,2.2,2.2,0,0,0,2.225-2.181,2.2,2.2,0,0,0-2.225-2.181,2.2,2.2,0,0,0-2.224,2.181" transform="translate(371.993 -374.465)" fill="#f2d63b"/>
      <path id="Path_35" data-name="Path 35" d="M-330.909,378.819a2.891,2.891,0,0,0,2.918,2.863,2.891,2.891,0,0,0,2.918-2.863,2.891,2.891,0,0,0-2.918-2.862,2.891,2.891,0,0,0-2.918,2.862" transform="translate(361.851 -364.1)" fill="#ef6823"/>
      <path id="Path_36" data-name="Path 36" d="M-360.63,360.379a2.891,2.891,0,0,0,2.918,2.862,2.891,2.891,0,0,0,2.918-2.862,2.891,2.891,0,0,0-2.918-2.862,2.891,2.891,0,0,0-2.918,2.862" transform="translate(372.931 -357.225)" fill="#ef6823"/>
      <path id="Path_37" data-name="Path 37" d="M-348.951,408.156a2.891,2.891,0,0,0,2.918,2.863,2.891,2.891,0,0,0,2.918-2.863,2.891,2.891,0,0,0-2.918-2.862,2.891,2.891,0,0,0-2.918,2.862" transform="translate(368.577 -375.037)" fill="#ef6823"/>
      <path id="Path_38" data-name="Path 38" d="M-379.431,389.438a2.891,2.891,0,0,0,2.918,2.862,2.891,2.891,0,0,0,2.918-2.862,2.891,2.891,0,0,0-2.918-2.862,2.891,2.891,0,0,0-2.918,2.862" transform="translate(379.941 -368.059)" fill="#ef6823"/>
    </g>
  </g>
</svg>
